<?xml version="1.0" encoding="UTF-8"?>
<svg id="Capa_1" data-name="Capa 1" xmlns="http://www.w3.org/2000/svg" xmlns:xlink="http://www.w3.org/1999/xlink" viewBox="0 0 1131.23 310.5">
  <defs>
    <style>
      .cls-1 {
        fill: #f1f1f1;
      }

      .cls-2 {
        fill: url(#Degradado_sin_nombre_51);
      }
    </style>
    <linearGradient id="Degradado_sin_nombre_51" data-name="Degradado sin nombre 51" x1="4.17" y1="160.36" x2="1128.05" y2="160.36" gradientUnits="userSpaceOnUse">
      <stop offset="0" stop-color="#81c1cc"/>
      <stop offset=".55" stop-color="#4d78b9"/>
      <stop offset="1" stop-color="#182934"/>
    </linearGradient>
  </defs>
  <g>
    <g>
      <path class="cls-1" d="M411.17,240.7L324.4,26.07h37.71l84.02,214.64h-34.96ZM414.85,240.7L498.87,26.07h38.02l-86.78,214.64h-35.26Z"/>
      <path class="cls-1" d="M587.79,244.38c-14.92,0-28.16-3.43-39.71-10.27-11.55-6.85-20.65-16.3-27.29-28.36-6.65-12.06-9.97-25.96-9.97-41.7s3.37-29.64,10.12-41.7c6.75-12.06,15.99-21.51,27.75-28.36,11.75-6.85,25.19-10.27,40.32-10.27,13.69,0,26.06,3.53,37.1,10.58,11.04,7.05,19.78,17.22,26.22,30.51,6.44,13.29,9.66,29.13,9.66,47.53h-120.5l4.6-4.29c0,9.4,2.04,17.53,6.13,24.38,4.09,6.85,9.51,12.11,16.25,15.79,6.75,3.68,14.21,5.52,22.38,5.52,9.4,0,17.17-2.09,23.3-6.29,6.13-4.19,10.93-9.66,14.41-16.4l30.36,12.88c-4.29,8.18-9.76,15.33-16.4,21.46-6.65,6.13-14.52,10.84-23.61,14.1-9.1,3.27-19.47,4.91-31.12,4.91ZM548.23,150.25l-4.91-4.29h86.47l-4.6,4.29c0-8.38-1.84-15.28-5.52-20.7-3.68-5.41-8.33-9.51-13.95-12.27-5.62-2.76-11.5-4.14-17.63-4.14s-12.26,1.38-18.4,4.14c-6.13,2.76-11.24,6.85-15.33,12.27-4.09,5.42-6.13,12.32-6.13,20.7Z"/>
      <path class="cls-1" d="M685.91,240.7V87.39h34.34v153.31h-34.34ZM708.6,159.14c0-16.56,3.17-30.15,9.5-40.78,6.33-10.63,14.57-18.55,24.68-23.76,10.12-5.21,20.7-7.82,31.74-7.82v32.81c-9.4,0-18.24,1.28-26.52,3.83-8.28,2.56-14.98,6.7-20.08,12.42-5.11,5.73-7.67,13.29-7.67,22.69l-11.65.61Z"/>
      <path class="cls-1" d="M807.94,58.26c-5.52,0-10.27-1.99-14.26-5.98s-5.98-8.74-5.98-14.26,1.99-10.22,5.98-14.1c3.99-3.88,8.74-5.83,14.26-5.83s10.27,1.94,14.26,5.83c3.99,3.89,5.98,8.59,5.98,14.1s-1.99,10.27-5.98,14.26-8.74,5.98-14.26,5.98ZM790.77,240.7V87.39h34.04v153.31h-34.04Z"/>
      <path class="cls-1" d="M845.66,115.6v-28.21h100.88v28.21h-100.88ZM872.02,240.7V71.14c0-16.15,4.03-28.56,12.11-37.25,8.07-8.69,20.29-13.03,36.64-13.03,5.31,0,10.99.87,17.02,2.61,6.03,1.74,11.8,4.04,17.32,6.9l-12.57,25.45c-3.89-1.84-7.31-3.17-10.27-3.99-2.97-.81-5.57-1.23-7.82-1.23-6.13,0-10.68,1.99-13.65,5.98-2.97,3.99-4.45,10.48-4.45,19.47v164.66h-34.34Z"/>
      <path class="cls-1" d="M1029.63,240.7l-68.68-153.31h37.41l53.35,129.09,11.04,24.22h-33.12ZM1002.34,305.71c-4.91,0-10.38-.92-16.4-2.76-6.03-1.84-11.81-4.19-17.32-7.05l12.88-27.9c3.88,1.84,7.46,3.32,10.73,4.45,3.27,1.12,5.93,1.69,7.97,1.69,4.91,0,9.04-1.28,12.42-3.83,3.37-2.56,6.08-6.29,8.13-11.19l18.09-42.31,51.82-129.4h37.41l-71.14,169.56c-4.29,9.81-8.64,18.4-13.03,25.76-4.4,7.36-9.87,13.03-16.41,17.02-6.54,3.99-14.92,5.98-25.14,5.98Z"/>
    </g>
    <g>
      <path class="cls-1" d="M67.75,142.27c-12.42-.08-23.45-2.87-33.08-8.38-9.63-5.51-17.14-13.06-22.53-22.64-5.39-9.58-8.04-20.53-7.96-32.83.08-12.54,2.88-23.57,8.38-33.08,5.51-9.51,13.12-16.97,22.82-22.35,9.7-5.39,20.76-8.04,33.19-7.96,6.79.04,13.32,1.17,19.58,3.38,6.25,2.21,11.92,5.23,16.99,9.07,5.07,3.84,9.18,8.23,12.31,13.17l-13.95,9.05c-2.32-3.65-5.35-6.89-9.08-9.73-3.73-2.84-7.85-5.06-12.35-6.67-4.5-1.61-9.04-2.43-13.61-2.46-9.03-.06-17.04,1.94-24.03,6-7,4.06-12.52,9.65-16.54,16.77-4.03,7.12-6.08,15.43-6.14,24.92-.06,9.26,1.85,17.47,5.73,24.65,3.88,7.17,9.35,12.83,16.41,16.98,7.06,4.15,15.17,6.25,24.31,6.31,7.38.05,13.98-1.43,19.8-4.44,5.82-3.01,10.42-7.26,13.79-12.75,3.38-5.49,5.09-11.86,5.13-19.13l16.71-1.48c-.07,10.9-2.5,20.38-7.3,28.43-4.8,8.06-11.37,14.28-19.72,18.68-8.35,4.4-17.97,6.56-28.87,6.49ZM77.05,91l.09-14.41,46.58.3-.08,12.66-8.8,1.7-37.79-.24Z"/>
      <path class="cls-1" d="M174.62,142.96c-8.55-.05-16.1-2.07-22.64-6.03-6.54-3.96-11.66-9.42-15.36-16.36-3.71-6.94-5.53-14.92-5.47-23.94.06-9.02,1.98-16.98,5.78-23.87,3.79-6.89,9.01-12.27,15.66-16.16,6.64-3.88,14.25-5.8,22.8-5.74,8.09.05,15.16,2.12,21.23,6.2,6.07,4.08,10.81,9.86,14.22,17.32,3.41,7.47,5.08,16.24,5.02,26.31l-71.02-.45,3.18-2.62c-.04,6.21,1.16,11.61,3.59,16.2,2.43,4.59,5.75,8.1,9.95,10.52,4.2,2.43,9,3.66,14.39,3.7,5.86.04,10.76-1.31,14.71-4.04,3.94-2.73,7.04-6.2,9.29-10.4l14.37,6.77c-2.38,4.56-5.45,8.55-9.22,11.98-3.77,3.43-8.21,6.07-13.32,7.91-5.11,1.84-10.83,2.74-17.16,2.7ZM149.12,89.71l-3.32-2.66,55.55.35-3.18,2.62c.03-5.16-.99-9.59-3.08-13.29-2.08-3.7-4.88-6.54-8.38-8.49-3.5-1.96-7.42-2.95-11.76-2.98-4.22-.03-8.3.91-12.23,2.82-3.94,1.91-7.18,4.67-9.72,8.29-2.54,3.62-3.83,8.06-3.86,13.34Z"/>
      <path class="cls-1" d="M215.54,67.63l.09-14.41,56.6.36-.09,14.41-56.6-.36ZM257.59,143.49c-8.79-.06-15.57-2.35-20.35-6.9-4.78-4.54-7.14-11.03-7.08-19.47l.58-91.23,16.7.11-.57,88.77c-.03,4.34,1.03,7.65,3.19,9.95,2.15,2.3,5.28,3.46,9.38,3.49,1.17,0,2.46-.22,3.87-.68,1.41-.46,3.11-1.39,5.12-2.78l6.25,13.05c-3.06,1.97-5.97,3.42-8.73,4.34-2.76.92-5.55,1.37-8.36,1.35Z"/>
    </g>
  </g>
  <g>
    <g>
      <path class="cls-2" d="M411.17,240.7L324.4,26.07h37.71l84.02,214.64h-34.96ZM414.85,240.7L498.87,26.07h38.02l-86.78,214.64h-35.26Z"/>
      <path class="cls-2" d="M587.79,244.38c-14.92,0-28.16-3.43-39.71-10.27-11.55-6.85-20.65-16.3-27.29-28.36-6.65-12.06-9.97-25.96-9.97-41.7s3.37-29.64,10.12-41.7c6.75-12.06,15.99-21.51,27.75-28.36,11.75-6.85,25.19-10.27,40.32-10.27,13.69,0,26.06,3.53,37.1,10.58,11.04,7.05,19.78,17.22,26.22,30.51,6.44,13.29,9.66,29.13,9.66,47.53h-120.5l4.6-4.29c0,9.4,2.04,17.53,6.13,24.38,4.09,6.85,9.51,12.11,16.25,15.79,6.75,3.68,14.21,5.52,22.38,5.52,9.4,0,17.17-2.09,23.3-6.29,6.13-4.19,10.93-9.66,14.41-16.4l30.36,12.88c-4.29,8.18-9.76,15.33-16.4,21.46-6.65,6.13-14.52,10.84-23.61,14.1-9.1,3.27-19.47,4.91-31.12,4.91ZM548.23,150.25l-4.91-4.29h86.47l-4.6,4.29c0-8.38-1.84-15.28-5.52-20.7-3.68-5.41-8.33-9.51-13.95-12.27-5.62-2.76-11.5-4.14-17.63-4.14s-12.26,1.38-18.4,4.14c-6.13,2.76-11.24,6.85-15.33,12.27-4.09,5.42-6.13,12.32-6.13,20.7Z"/>
      <path class="cls-2" d="M685.91,240.7V87.39h34.34v153.31h-34.34ZM708.6,159.14c0-16.56,3.17-30.15,9.5-40.78,6.33-10.63,14.57-18.55,24.68-23.76,10.12-5.21,20.7-7.82,31.74-7.82v32.81c-9.4,0-18.24,1.28-26.52,3.83-8.28,2.56-14.98,6.7-20.08,12.42-5.11,5.73-7.67,13.29-7.67,22.69l-11.65.61Z"/>
      <path class="cls-2" d="M807.94,58.26c-5.52,0-10.27-1.99-14.26-5.98s-5.98-8.74-5.98-14.26,1.99-10.22,5.98-14.1c3.99-3.88,8.74-5.83,14.26-5.83s10.27,1.94,14.26,5.83c3.99,3.89,5.98,8.59,5.98,14.1s-1.99,10.27-5.98,14.26-8.74,5.98-14.26,5.98ZM790.77,240.7V87.39h34.04v153.31h-34.04Z"/>
      <path class="cls-2" d="M845.66,115.6v-28.21h100.88v28.21h-100.88ZM872.02,240.7V71.14c0-16.15,4.03-28.56,12.11-37.25,8.07-8.69,20.29-13.03,36.64-13.03,5.31,0,10.99.87,17.02,2.61,6.03,1.74,11.8,4.04,17.32,6.9l-12.57,25.45c-3.89-1.84-7.31-3.17-10.27-3.99-2.97-.81-5.57-1.23-7.82-1.23-6.13,0-10.68,1.99-13.65,5.98-2.97,3.99-4.45,10.48-4.45,19.47v164.66h-34.34Z"/>
      <path class="cls-2" d="M1029.63,240.7l-68.68-153.31h37.41l53.35,129.09,11.04,24.22h-33.12ZM1002.34,305.71c-4.91,0-10.38-.92-16.4-2.76-6.03-1.84-11.81-4.19-17.32-7.05l12.88-27.9c3.88,1.84,7.46,3.32,10.73,4.45,3.27,1.12,5.93,1.69,7.97,1.69,4.91,0,9.04-1.28,12.42-3.83,3.37-2.56,6.08-6.29,8.13-11.19l18.09-42.31,51.82-129.4h37.41l-71.14,169.56c-4.29,9.81-8.64,18.4-13.03,25.76-4.4,7.36-9.87,13.03-16.41,17.02-6.54,3.99-14.92,5.98-25.14,5.98Z"/>
    </g>
    <g>
      <path class="cls-2" d="M67.75,142.27c-12.42-.08-23.45-2.87-33.08-8.38-9.63-5.51-17.14-13.06-22.53-22.64-5.39-9.58-8.04-20.53-7.96-32.83.08-12.54,2.88-23.57,8.38-33.08,5.51-9.51,13.12-16.97,22.82-22.35,9.7-5.39,20.76-8.04,33.19-7.96,6.79.04,13.32,1.17,19.58,3.38,6.25,2.21,11.92,5.23,16.99,9.07,5.07,3.84,9.18,8.23,12.31,13.17l-13.95,9.05c-2.32-3.65-5.35-6.89-9.08-9.73-3.73-2.84-7.85-5.06-12.35-6.67-4.5-1.61-9.04-2.43-13.61-2.46-9.03-.06-17.04,1.94-24.03,6-7,4.06-12.52,9.65-16.54,16.77-4.03,7.12-6.08,15.43-6.14,24.92-.06,9.26,1.85,17.47,5.73,24.65,3.88,7.17,9.35,12.83,16.41,16.98,7.06,4.15,15.17,6.25,24.31,6.31,7.38.05,13.98-1.43,19.8-4.44,5.82-3.01,10.42-7.26,13.79-12.75,3.38-5.49,5.09-11.86,5.13-19.13l16.71-1.48c-.07,10.9-2.5,20.38-7.3,28.43-4.8,8.06-11.37,14.28-19.72,18.68-8.35,4.4-17.97,6.56-28.87,6.49ZM77.05,91l.09-14.41,46.58.3-.08,12.66-8.8,1.7-37.79-.24Z"/>
      <path class="cls-2" d="M174.62,142.96c-8.55-.05-16.1-2.07-22.64-6.03-6.54-3.96-11.66-9.42-15.36-16.36-3.71-6.94-5.53-14.92-5.47-23.94.06-9.02,1.98-16.98,5.78-23.87,3.79-6.89,9.01-12.27,15.66-16.16,6.64-3.88,14.25-5.8,22.8-5.74,8.09.05,15.16,2.12,21.23,6.2,6.07,4.08,10.81,9.86,14.22,17.32,3.41,7.47,5.08,16.24,5.02,26.31l-71.02-.45,3.18-2.62c-.04,6.21,1.16,11.61,3.59,16.2,2.43,4.59,5.75,8.1,9.95,10.52,4.2,2.43,9,3.66,14.39,3.7,5.86.04,10.76-1.31,14.71-4.04,3.94-2.73,7.04-6.2,9.29-10.4l14.37,6.77c-2.38,4.56-5.45,8.55-9.22,11.98-3.77,3.43-8.21,6.07-13.32,7.91-5.11,1.84-10.83,2.74-17.16,2.7ZM149.12,89.71l-3.32-2.66,55.55.35-3.18,2.62c.03-5.16-.99-9.59-3.08-13.29-2.08-3.7-4.88-6.54-8.38-8.49-3.5-1.96-7.42-2.95-11.76-2.98-4.22-.03-8.3.91-12.23,2.82-3.94,1.91-7.18,4.67-9.72,8.29-2.54,3.62-3.83,8.06-3.86,13.34Z"/>
      <path class="cls-2" d="M215.54,67.63l.09-14.41,56.6.36-.09,14.41-56.6-.36ZM257.59,143.49c-8.79-.06-15.57-2.35-20.35-6.9-4.78-4.54-7.14-11.03-7.08-19.47l.58-91.23,16.7.11-.57,88.77c-.03,4.34,1.03,7.65,3.19,9.95,2.15,2.3,5.28,3.46,9.38,3.49,1.17,0,2.46-.22,3.87-.68,1.41-.46,3.11-1.39,5.12-2.78l6.25,13.05c-3.06,1.97-5.97,3.42-8.73,4.34-2.76.92-5.55,1.37-8.36,1.35Z"/>
    </g>
  </g>
</svg>